<?xml version="1.0" encoding="UTF-8" standalone="no"?>
<!-- Created with Inkscape (http://www.inkscape.org/) -->

<svg
   width="198.97426"
   height="53.563145"
   viewBox="0 0 52.645271 14.171916"
   version="1.1"
   id="svg1475"
   inkscape:version="1.1 (ce6663b3b7, 2021-05-25)"
   sodipodi:docname="no-data.svg"
   xmlns:inkscape="http://www.inkscape.org/namespaces/inkscape"
   xmlns:sodipodi="http://sodipodi.sourceforge.net/DTD/sodipodi-0.dtd"
   xmlns="http://www.w3.org/2000/svg"
   xmlns:svg="http://www.w3.org/2000/svg">
  <sodipodi:namedview
     id="namedview1477"
     pagecolor="#ffffff"
     bordercolor="#666666"
     borderopacity="1.0"
     inkscape:pageshadow="2"
     inkscape:pageopacity="0.0"
     inkscape:pagecheckerboard="0"
     inkscape:document-units="mm"
     showgrid="false"
     units="px"
     lock-margins="true"
     fit-margin-top="1"
     fit-margin-left="1"
     fit-margin-right="1"
     fit-margin-bottom="1"
     inkscape:zoom="3"
     inkscape:cx="103"
     inkscape:cy="151.16667"
     inkscape:window-width="2488"
     inkscape:window-height="1376"
     inkscape:window-x="72"
     inkscape:window-y="27"
     inkscape:window-maximized="1"
     inkscape:current-layer="layer1" />
  <defs
     id="defs1472" />
  <g
     inkscape:label="Layer 1"
     inkscape:groupmode="layer"
     id="layer1"
     transform="translate(-76.759841,-108.58415)">
    <g
       id="004---Hiking-Boot"
       fill="#000000"
       fill-rule="nonzero"
       transform="matrix(0.2728549,0,0,0.2728549,77.024424,108.84873)"
       style="fill:#b3b3b3">
      <path
         id="Shape"
         d="M 52,29 H 46.05 C 36.159111,29.00141 27.759868,21.756898 26.309,11.973 26.105143,10.611448 26.001863,9.2367276 26,7.86 V 4 C 26,1.790861 24.209139,0 22,0 H 16.27 C 15.35451,0.00334791 14.457287,0.25643754 13.675,0.732 12.547,1.41 9.886,2.593 4.747,2.912 2.6405037,3.0509475 1.0022646,4.7989273 1,6.91 V 41.278 C 0.38324874,41.632413 0.002145,42.288673 0,43 v 5 c 0,1.104569 0.8954305,2 2,2 h 2.4 c 0.7381292,3.87e-4 1.4155804,-0.408626 1.759,-1.062 l 1,-1.931 1.749,2.223 c 0.3800532,0.487292 0.9640262,0.771527 1.582,0.77 h 1.9 c 0.747056,4.88e-4 1.432688,-0.413587 1.78,-1.075 l 1,-1.918 1.744,2.223 c 0.378758,0.485628 0.960132,0.769675 1.576,0.77 h 1.9 c 0.747698,0.0018 1.433938,-0.413684 1.779,-1.077 L 23.154,47 l 1.755,2.234 c 0.380649,0.485513 0.964063,0.768179 1.581,0.766 h 11.49 c 1.31,0 2.554,-0.022 3.725,-0.06 0.730418,-0.02431 1.388946,-0.446443 1.716,-1.1 l 0.886,-1.766 c 0.01853,-0.03928 0.0567,-0.06562 0.1,-0.069 0.04314,-0.0068 0.08661,0.01 0.114,0.044 l 1.379,1.764 c 0.428832,0.537782 1.100303,0.822546 1.785,0.757 0.694,-0.06667 1.352667,-0.139667 1.976,-0.219 0.744794,-0.09362 1.373343,-0.598786 1.625,-1.306 l 0.682,-1.885 c 0.01395,-0.05122 0.05586,-0.09003 0.108,-0.1 0.0501,-0.01244 0.103066,0.0019 0.14,0.038 l 1.674,1.61 c 0.504283,0.483962 1.224028,0.670717 1.9,0.493 0.76259,-0.195411 1.514873,-0.42904 2.254,-0.7 C 59.222671,47.069101 60.004654,45.945301 60,44.69 V 37 c -0.005,-4.416222 -3.583778,-7.99504 -8,-8 z m 6,8 v 1.32 c -2.885,1.07 -8.339,2 -13.86,2.425 C 44.717816,37.971908 47.167372,35.988436 50,36 h 7.91 c 0.05789,0.330233 0.08799,0.664738 0.09,1 z M 27.176,20.213 24.857,21.662 C 24.331351,21.236475 23.676291,21.002953 23,21 c -1.286489,-0.0097 -2.438185,0.79586 -2.870256,2.007661 -0.43207,1.211801 -0.04984,2.564304 0.952589,3.370704 1.002431,0.806399 2.405418,0.890003 3.496521,0.208357 C 25.669957,25.905076 26.210101,24.607538 25.925,23.353 l 2.348,-1.467 c 0.804219,1.115657 1.711181,2.153524 2.709,3.1 l -1.9,2.227 C 28.737853,27.074872 28.370822,27.00262 28,27 c -1.656854,0 -3,1.343146 -3,3 0,1.656854 1.343146,3 3,3 1.656854,0 3,-1.343146 3,-3 -0.0033,-0.521283 -0.144043,-1.032474 -0.408,-1.482 l 1.9,-2.228 c 1.283119,1.017043 2.67614,1.887136 4.153,2.594 l -0.706,2.122 c -1.473762,0.01852 -2.7195,1.096832 -2.949083,2.552719 -0.229583,1.455888 0.623872,2.865223 2.020416,3.336373 1.396544,0.47115 2.929333,-0.133142 3.62863,-1.430563 C 39.338259,34.167108 39.000342,32.554524 37.839,31.647 L 38.5,29.656 c 2.41826,0.887722 4.973951,1.342669 7.55,1.344 H 52 c 2.14068,0.0029 4.117661,1.146114 5.188,3 H 50 C 46.008979,33.98309 42.62336,36.926421 42.085,40.881 40.685,40.957 39.304,41 37.98,41 H 21.38 C 18.358082,32.841562 11.4625,26.730455 3,24.711 V 11.986 C 10.471,11.845 14.081,10.147 15.794,8.709 16.33557,8.2531712 17.020135,8.0022112 17.728,8 h 6.277 c 0.0069,1.4286141 0.115849,2.85491 0.326,4.268 0.09,0.6 0.21,1.192 0.348,1.778 l -2.114,0.423 c -0.746931,-1.255807 -2.289969,-1.790838 -3.653979,-1.266975 -1.364011,0.523862 -2.152217,1.954231 -1.866505,3.387174 0.285712,1.432943 1.562231,2.451631 3.02285,2.412296 1.460619,-0.03934 2.68046,-1.125252 2.888634,-2.571495 l 2.269,-0.454 c 0.498591,1.477384 1.152588,2.897673 1.951,4.237 z M 24,24 c 0,0.552285 -0.447715,1 -1,1 -0.552285,0 -1,-0.447715 -1,-1 0,-0.552285 0.447715,-1 1,-1 0.552285,0 1,0.447715 1,1 z m 5,6 c 0,0.552285 -0.447715,1 -1,1 -0.552285,0 -1,-0.447715 -1,-1 0,-0.552285 0.447715,-1 1,-1 0.552285,0 1,0.447715 1,1 z m 8,4 c 0,0.552285 -0.447715,1 -1,1 -0.552285,0 -1,-0.447715 -1,-1 0,-0.552285 0.447715,-1 1,-1 0.552285,0 1,0.447715 1,1 z M 19.25,41 H 3 V 26.765 C 10.361942,28.675234 16.387398,33.953534 19.25,41 Z M 21,16 c 0,0.552285 -0.447715,1 -1,1 -0.552285,0 -1,-0.447715 -1,-1 0,-0.552285 0.447715,-1 1,-1 0.552285,0 1,0.447715 1,1 z M 4.872,4.908 C 10.155,4.581 13.135,3.389 14.707,2.446 15.177637,2.1577126 15.718097,2.0034932 16.27,2 H 22 c 1.104569,0 2,0.8954305 2,2 V 6 H 17.728 C 16.549848,6.00256 15.410084,6.4191789 14.508,7.177 13.308,8.186 10.229,9.843 3,9.986 V 6.91 C 3.0002391,5.8541399 3.8185312,4.9790219 4.872,4.908 Z M 58,44.69 c 0.0055,0.417359 -0.253682,0.792501 -0.646,0.935 -0.67984,0.250634 -1.372082,0.46625 -2.074,0.646 L 53.6,44.66 C 53.074777,44.155541 52.330059,43.950935 51.620825,44.116234 50.91159,44.281534 50.334071,44.794311 50.086,45.479 l -0.673,1.887 c -0.609,0.076 -1.251,0.145 -1.939,0.214 L 46.088,45.807 C 45.637494,45.23949 44.929486,44.939781 44.208445,45.011359 43.487404,45.082938 42.852139,45.515994 42.522,46.161 l -0.885,1.78 C 40.486,47.978 39.264,48 37.976,48 h -11.5 L 24.722,45.766 C 24.349538,45.285598 23.776869,45.003136 23.169,45 c -0.057,0 -0.114,0 -0.171,0.008 -0.677959,0.05788 -1.279986,0.456464 -1.598,1.058 L 20.388,48 h -1.907 l -1.746,-2.225 c -0.421308,-0.53417 -1.084639,-0.818401 -1.762,-0.755 -0.669076,0.06247 -1.260159,0.461674 -1.568,1.059 L 12.386,48 h -1.9 L 8.735,45.771 C 8.3138083,45.236679 7.6503903,44.952411 6.973,45.016 6.3039245,45.078466 5.7128408,45.477674 5.405,46.075 L 4.4,48 H 2 v -5 h 35.98 c 6.245,0 15.147,-0.965 20.020086,-2.558 z"
         style="fill:#b3b3b3" />
      <path
         id="path908"
         d="M 10.464,14.021 C 7.7141742,13.764464 5.2770363,15.785674 5.0205,18.5355 4.7639637,21.285326 6.7851742,23.722464 9.535,23.979 9.6923333,23.993 9.8473333,24 10,24 12.672959,24.0017 14.874557,21.900852 14.997908,19.23074 15.12126,16.560629 13.122733,14.265717 10.461,14.021 Z M 9.721,21.987 C 8.0713269,21.832912 6.8589156,20.370675 7.0130032,18.721001 7.1670908,17.071328 8.6293276,15.858916 10.279001,16.013003 11.928674,16.16709 13.141086,17.629327 12.987,19.279 12.9182,20.073328 12.53396,20.806959 11.920194,21.315862 11.306429,21.824765 10.514329,22.066494 9.721,21.987 Z"
         style="fill:#b3b3b3" />
      <path
         id="path910"
         d="m 23,39 h 8 c 0.552285,0 1,-0.447715 1,-1 0,-0.552285 -0.447715,-1 -1,-1 h -8 c -0.552285,0 -1,0.447715 -1,1 0,0.552285 0.447715,1 1,1 z"
         style="fill:#b3b3b3" />
    </g>
    <g
       id="004---Hiking-Boot-7"
       fill="#000000"
       fill-rule="nonzero"
       transform="matrix(0.2728549,0,0,0.2728549,112.76923,108.84873)"
       style="fill:#b3b3b3">
      <path
         id="Shape-5"
         d="M 52,29 H 46.05 C 36.159111,29.00141 27.759868,21.756898 26.309,11.973 26.105143,10.611448 26.001863,9.2367276 26,7.86 V 4 C 26,1.790861 24.209139,0 22,0 H 16.27 C 15.35451,0.00334791 14.457287,0.25643754 13.675,0.732 12.547,1.41 9.886,2.593 4.747,2.912 2.6405037,3.0509475 1.0022646,4.7989273 1,6.91 V 41.278 C 0.38324874,41.632413 0.002145,42.288673 0,43 v 5 c 0,1.104569 0.8954305,2 2,2 h 2.4 c 0.7381292,3.87e-4 1.4155804,-0.408626 1.759,-1.062 l 1,-1.931 1.749,2.223 c 0.3800532,0.487292 0.9640262,0.771527 1.582,0.77 h 1.9 c 0.747056,4.88e-4 1.432688,-0.413587 1.78,-1.075 l 1,-1.918 1.744,2.223 c 0.378758,0.485628 0.960132,0.769675 1.576,0.77 h 1.9 c 0.747698,0.0018 1.433938,-0.413684 1.779,-1.077 L 23.154,47 l 1.755,2.234 c 0.380649,0.485513 0.964063,0.768179 1.581,0.766 h 11.49 c 1.31,0 2.554,-0.022 3.725,-0.06 0.730418,-0.02431 1.388946,-0.446443 1.716,-1.1 l 0.886,-1.766 c 0.01853,-0.03928 0.0567,-0.06562 0.1,-0.069 0.04314,-0.0068 0.08661,0.01 0.114,0.044 l 1.379,1.764 c 0.428832,0.537782 1.100303,0.822546 1.785,0.757 0.694,-0.06667 1.352667,-0.139667 1.976,-0.219 0.744794,-0.09362 1.373343,-0.598786 1.625,-1.306 l 0.682,-1.885 c 0.01395,-0.05122 0.05586,-0.09003 0.108,-0.1 0.0501,-0.01244 0.103066,0.0019 0.14,0.038 l 1.674,1.61 c 0.504283,0.483962 1.224028,0.670717 1.9,0.493 0.76259,-0.195411 1.514873,-0.42904 2.254,-0.7 C 59.222671,47.069101 60.004654,45.945301 60,44.69 V 37 c -0.005,-4.416222 -3.583778,-7.99504 -8,-8 z m 6,8 v 1.32 c -2.885,1.07 -8.339,2 -13.86,2.425 C 44.717816,37.971908 47.167372,35.988436 50,36 h 7.91 c 0.05789,0.330233 0.08799,0.664738 0.09,1 z M 27.176,20.213 24.857,21.662 C 24.331351,21.236475 23.676291,21.002953 23,21 c -1.286489,-0.0097 -2.438185,0.79586 -2.870256,2.007661 -0.43207,1.211801 -0.04984,2.564304 0.952589,3.370704 1.002431,0.806399 2.405418,0.890003 3.496521,0.208357 C 25.669957,25.905076 26.210101,24.607538 25.925,23.353 l 2.348,-1.467 c 0.804219,1.115657 1.711181,2.153524 2.709,3.1 l -1.9,2.227 C 28.737853,27.074872 28.370822,27.00262 28,27 c -1.656854,0 -3,1.343146 -3,3 0,1.656854 1.343146,3 3,3 1.656854,0 3,-1.343146 3,-3 -0.0033,-0.521283 -0.144043,-1.032474 -0.408,-1.482 l 1.9,-2.228 c 1.283119,1.017043 2.67614,1.887136 4.153,2.594 l -0.706,2.122 c -1.473762,0.01852 -2.7195,1.096832 -2.949083,2.552719 -0.229583,1.455888 0.623872,2.865223 2.020416,3.336373 1.396544,0.47115 2.929333,-0.133142 3.62863,-1.430563 C 39.338259,34.167108 39.000342,32.554524 37.839,31.647 L 38.5,29.656 c 2.41826,0.887722 4.973951,1.342669 7.55,1.344 H 52 c 2.14068,0.0029 4.117661,1.146114 5.188,3 H 50 C 46.008979,33.98309 42.62336,36.926421 42.085,40.881 40.685,40.957 39.304,41 37.98,41 H 21.38 C 18.358082,32.841562 11.4625,26.730455 3,24.711 V 11.986 C 10.471,11.845 14.081,10.147 15.794,8.709 16.33557,8.2531712 17.020135,8.0022112 17.728,8 h 6.277 c 0.0069,1.4286141 0.115849,2.85491 0.326,4.268 0.09,0.6 0.21,1.192 0.348,1.778 l -2.114,0.423 c -0.746931,-1.255807 -2.289969,-1.790838 -3.653979,-1.266975 -1.364011,0.523862 -2.152217,1.954231 -1.866505,3.387174 0.285712,1.432943 1.562231,2.451631 3.02285,2.412296 1.460619,-0.03934 2.68046,-1.125252 2.888634,-2.571495 l 2.269,-0.454 c 0.498591,1.477384 1.152588,2.897673 1.951,4.237 z M 24,24 c 0,0.552285 -0.447715,1 -1,1 -0.552285,0 -1,-0.447715 -1,-1 0,-0.552285 0.447715,-1 1,-1 0.552285,0 1,0.447715 1,1 z m 5,6 c 0,0.552285 -0.447715,1 -1,1 -0.552285,0 -1,-0.447715 -1,-1 0,-0.552285 0.447715,-1 1,-1 0.552285,0 1,0.447715 1,1 z m 8,4 c 0,0.552285 -0.447715,1 -1,1 -0.552285,0 -1,-0.447715 -1,-1 0,-0.552285 0.447715,-1 1,-1 0.552285,0 1,0.447715 1,1 z M 19.25,41 H 3 V 26.765 C 10.361942,28.675234 16.387398,33.953534 19.25,41 Z M 21,16 c 0,0.552285 -0.447715,1 -1,1 -0.552285,0 -1,-0.447715 -1,-1 0,-0.552285 0.447715,-1 1,-1 0.552285,0 1,0.447715 1,1 z M 4.872,4.908 C 10.155,4.581 13.135,3.389 14.707,2.446 15.177637,2.1577126 15.718097,2.0034932 16.27,2 H 22 c 1.104569,0 2,0.8954305 2,2 V 6 H 17.728 C 16.549848,6.00256 15.410084,6.4191789 14.508,7.177 13.308,8.186 10.229,9.843 3,9.986 V 6.91 C 3.0002391,5.8541399 3.8185312,4.9790219 4.872,4.908 Z M 58,44.69 c 0.0055,0.417359 -0.253682,0.792501 -0.646,0.935 -0.67984,0.250634 -1.372082,0.46625 -2.074,0.646 L 53.6,44.66 C 53.074777,44.155541 52.330059,43.950935 51.620825,44.116234 50.91159,44.281534 50.334071,44.794311 50.086,45.479 l -0.673,1.887 c -0.609,0.076 -1.251,0.145 -1.939,0.214 L 46.088,45.807 C 45.637494,45.23949 44.929486,44.939781 44.208445,45.011359 43.487404,45.082938 42.852139,45.515994 42.522,46.161 l -0.885,1.78 C 40.486,47.978 39.264,48 37.976,48 h -11.5 L 24.722,45.766 C 24.349538,45.285598 23.776869,45.003136 23.169,45 c -0.057,0 -0.114,0 -0.171,0.008 -0.677959,0.05788 -1.279986,0.456464 -1.598,1.058 L 20.388,48 h -1.907 l -1.746,-2.225 c -0.421308,-0.53417 -1.084639,-0.818401 -1.762,-0.755 -0.669076,0.06247 -1.260159,0.461674 -1.568,1.059 L 12.386,48 h -1.9 L 8.735,45.771 C 8.3138083,45.236679 7.6503903,44.952411 6.973,45.016 6.3039245,45.078466 5.7128408,45.477674 5.405,46.075 L 4.4,48 H 2 v -5 h 35.98 c 6.245,0 15.147,-0.965 20.020086,-2.558 z"
         style="fill:#b3b3b3" />
      <path
         id="path908-3"
         d="M 10.464,14.021 C 7.7141742,13.764464 5.2770363,15.785674 5.0205,18.5355 4.7639637,21.285326 6.7851742,23.722464 9.535,23.979 9.6923333,23.993 9.8473333,24 10,24 12.672959,24.0017 14.874557,21.900852 14.997908,19.23074 15.12126,16.560629 13.122733,14.265717 10.461,14.021 Z M 9.721,21.987 C 8.0713269,21.832912 6.8589156,20.370675 7.0130032,18.721001 7.1670908,17.071328 8.6293276,15.858916 10.279001,16.013003 11.928674,16.16709 13.141086,17.629327 12.987,19.279 12.9182,20.073328 12.53396,20.806959 11.920194,21.315862 11.306429,21.824765 10.514329,22.066494 9.721,21.987 Z"
         style="fill:#b3b3b3" />
      <path
         id="path910-5"
         d="m 23,39 h 8 c 0.552285,0 1,-0.447715 1,-1 0,-0.552285 -0.447715,-1 -1,-1 h -8 c -0.552285,0 -1,0.447715 -1,1 0,0.552285 0.447715,1 1,1 z"
         style="fill:#b3b3b3" />
    </g>
    <g
       id="004---Hiking-Boot-6"
       fill="#000000"
       fill-rule="nonzero"
       transform="matrix(0.2728549,0,0,0.2728549,94.896823,108.84873)"
       style="fill:#b3b3b3">
      <path
         id="Shape-2"
         d="M 52,29 H 46.05 C 36.159111,29.00141 27.759868,21.756898 26.309,11.973 26.105143,10.611448 26.001863,9.2367276 26,7.86 V 4 C 26,1.790861 24.209139,0 22,0 H 16.27 C 15.35451,0.00334791 14.457287,0.25643754 13.675,0.732 12.547,1.41 9.886,2.593 4.747,2.912 2.6405037,3.0509475 1.0022646,4.7989273 1,6.91 V 41.278 C 0.38324874,41.632413 0.002145,42.288673 0,43 v 5 c 0,1.104569 0.8954305,2 2,2 h 2.4 c 0.7381292,3.87e-4 1.4155804,-0.408626 1.759,-1.062 l 1,-1.931 1.749,2.223 c 0.3800532,0.487292 0.9640262,0.771527 1.582,0.77 h 1.9 c 0.747056,4.88e-4 1.432688,-0.413587 1.78,-1.075 l 1,-1.918 1.744,2.223 c 0.378758,0.485628 0.960132,0.769675 1.576,0.77 h 1.9 c 0.747698,0.0018 1.433938,-0.413684 1.779,-1.077 L 23.154,47 l 1.755,2.234 c 0.380649,0.485513 0.964063,0.768179 1.581,0.766 h 11.49 c 1.31,0 2.554,-0.022 3.725,-0.06 0.730418,-0.02431 1.388946,-0.446443 1.716,-1.1 l 0.886,-1.766 c 0.01853,-0.03928 0.0567,-0.06562 0.1,-0.069 0.04314,-0.0068 0.08661,0.01 0.114,0.044 l 1.379,1.764 c 0.428832,0.537782 1.100303,0.822546 1.785,0.757 0.694,-0.06667 1.352667,-0.139667 1.976,-0.219 0.744794,-0.09362 1.373343,-0.598786 1.625,-1.306 l 0.682,-1.885 c 0.01395,-0.05122 0.05586,-0.09003 0.108,-0.1 0.0501,-0.01244 0.103066,0.0019 0.14,0.038 l 1.674,1.61 c 0.504283,0.483962 1.224028,0.670717 1.9,0.493 0.76259,-0.195411 1.514873,-0.42904 2.254,-0.7 C 59.222671,47.069101 60.004654,45.945301 60,44.69 V 37 c -0.005,-4.416222 -3.583778,-7.99504 -8,-8 z m 6,8 v 1.32 c -2.885,1.07 -8.339,2 -13.86,2.425 C 44.717816,37.971908 47.167372,35.988436 50,36 h 7.91 c 0.05789,0.330233 0.08799,0.664738 0.09,1 z M 27.176,20.213 24.857,21.662 C 24.331351,21.236475 23.676291,21.002953 23,21 c -1.286489,-0.0097 -2.438185,0.79586 -2.870256,2.007661 -0.43207,1.211801 -0.04984,2.564304 0.952589,3.370704 1.002431,0.806399 2.405418,0.890003 3.496521,0.208357 C 25.669957,25.905076 26.210101,24.607538 25.925,23.353 l 2.348,-1.467 c 0.804219,1.115657 1.711181,2.153524 2.709,3.1 l -1.9,2.227 C 28.737853,27.074872 28.370822,27.00262 28,27 c -1.656854,0 -3,1.343146 -3,3 0,1.656854 1.343146,3 3,3 1.656854,0 3,-1.343146 3,-3 -0.0033,-0.521283 -0.144043,-1.032474 -0.408,-1.482 l 1.9,-2.228 c 1.283119,1.017043 2.67614,1.887136 4.153,2.594 l -0.706,2.122 c -1.473762,0.01852 -2.7195,1.096832 -2.949083,2.552719 -0.229583,1.455888 0.623872,2.865223 2.020416,3.336373 1.396544,0.47115 2.929333,-0.133142 3.62863,-1.430563 C 39.338259,34.167108 39.000342,32.554524 37.839,31.647 L 38.5,29.656 c 2.41826,0.887722 4.973951,1.342669 7.55,1.344 H 52 c 2.14068,0.0029 4.117661,1.146114 5.188,3 H 50 C 46.008979,33.98309 42.62336,36.926421 42.085,40.881 40.685,40.957 39.304,41 37.98,41 H 21.38 C 18.358082,32.841562 11.4625,26.730455 3,24.711 V 11.986 C 10.471,11.845 14.081,10.147 15.794,8.709 16.33557,8.2531712 17.020135,8.0022112 17.728,8 h 6.277 c 0.0069,1.4286141 0.115849,2.85491 0.326,4.268 0.09,0.6 0.21,1.192 0.348,1.778 l -2.114,0.423 c -0.746931,-1.255807 -2.289969,-1.790838 -3.653979,-1.266975 -1.364011,0.523862 -2.152217,1.954231 -1.866505,3.387174 0.285712,1.432943 1.562231,2.451631 3.02285,2.412296 1.460619,-0.03934 2.68046,-1.125252 2.888634,-2.571495 l 2.269,-0.454 c 0.498591,1.477384 1.152588,2.897673 1.951,4.237 z M 24,24 c 0,0.552285 -0.447715,1 -1,1 -0.552285,0 -1,-0.447715 -1,-1 0,-0.552285 0.447715,-1 1,-1 0.552285,0 1,0.447715 1,1 z m 5,6 c 0,0.552285 -0.447715,1 -1,1 -0.552285,0 -1,-0.447715 -1,-1 0,-0.552285 0.447715,-1 1,-1 0.552285,0 1,0.447715 1,1 z m 8,4 c 0,0.552285 -0.447715,1 -1,1 -0.552285,0 -1,-0.447715 -1,-1 0,-0.552285 0.447715,-1 1,-1 0.552285,0 1,0.447715 1,1 z M 19.25,41 H 3 V 26.765 C 10.361942,28.675234 16.387398,33.953534 19.25,41 Z M 21,16 c 0,0.552285 -0.447715,1 -1,1 -0.552285,0 -1,-0.447715 -1,-1 0,-0.552285 0.447715,-1 1,-1 0.552285,0 1,0.447715 1,1 z M 4.872,4.908 C 10.155,4.581 13.135,3.389 14.707,2.446 15.177637,2.1577126 15.718097,2.0034932 16.27,2 H 22 c 1.104569,0 2,0.8954305 2,2 V 6 H 17.728 C 16.549848,6.00256 15.410084,6.4191789 14.508,7.177 13.308,8.186 10.229,9.843 3,9.986 V 6.91 C 3.0002391,5.8541399 3.8185312,4.9790219 4.872,4.908 Z M 58,44.69 c 0.0055,0.417359 -0.253682,0.792501 -0.646,0.935 -0.67984,0.250634 -1.372082,0.46625 -2.074,0.646 L 53.6,44.66 C 53.074777,44.155541 52.330059,43.950935 51.620825,44.116234 50.91159,44.281534 50.334071,44.794311 50.086,45.479 l -0.673,1.887 c -0.609,0.076 -1.251,0.145 -1.939,0.214 L 46.088,45.807 C 45.637494,45.23949 44.929486,44.939781 44.208445,45.011359 43.487404,45.082938 42.852139,45.515994 42.522,46.161 l -0.885,1.78 C 40.486,47.978 39.264,48 37.976,48 h -11.5 L 24.722,45.766 C 24.349538,45.285598 23.776869,45.003136 23.169,45 c -0.057,0 -0.114,0 -0.171,0.008 -0.677959,0.05788 -1.279986,0.456464 -1.598,1.058 L 20.388,48 h -1.907 l -1.746,-2.225 c -0.421308,-0.53417 -1.084639,-0.818401 -1.762,-0.755 -0.669076,0.06247 -1.260159,0.461674 -1.568,1.059 L 12.386,48 h -1.9 L 8.735,45.771 C 8.3138083,45.236679 7.6503903,44.952411 6.973,45.016 6.3039245,45.078466 5.7128408,45.477674 5.405,46.075 L 4.4,48 H 2 v -5 h 35.98 c 6.245,0 15.147,-0.965 20.020086,-2.558 z"
         style="fill:#b3b3b3" />
      <path
         id="path908-9"
         d="M 10.464,14.021 C 7.7141742,13.764464 5.2770363,15.785674 5.0205,18.5355 4.7639637,21.285326 6.7851742,23.722464 9.535,23.979 9.6923333,23.993 9.8473333,24 10,24 12.672959,24.0017 14.874557,21.900852 14.997908,19.23074 15.12126,16.560629 13.122733,14.265717 10.461,14.021 Z M 9.721,21.987 C 8.0713269,21.832912 6.8589156,20.370675 7.0130032,18.721001 7.1670908,17.071328 8.6293276,15.858916 10.279001,16.013003 11.928674,16.16709 13.141086,17.629327 12.987,19.279 12.9182,20.073328 12.53396,20.806959 11.920194,21.315862 11.306429,21.824765 10.514329,22.066494 9.721,21.987 Z"
         style="fill:#b3b3b3" />
      <path
         id="path910-1"
         d="m 23,39 h 8 c 0.552285,0 1,-0.447715 1,-1 0,-0.552285 -0.447715,-1 -1,-1 h -8 c -0.552285,0 -1,0.447715 -1,1 0,0.552285 0.447715,1 1,1 z"
         style="fill:#b3b3b3" />
    </g>
  </g>
</svg>
