<?xml version="1.0" encoding="UTF-8" standalone="no"?>
<!-- Created with Inkscape (http://www.inkscape.org/) -->

<svg
   width="450.43973"
   height="650.047"
   viewBox="0 0 119.17884 171.99161"
   version="1.1"
   id="svg20662"
   inkscape:version="1.1 (ce6663b3b7, 2021-05-25)"
   sodipodi:docname="guttland.svg"
   xmlns:inkscape="http://www.inkscape.org/namespaces/inkscape"
   xmlns:sodipodi="http://sodipodi.sourceforge.net/DTD/sodipodi-0.dtd"
   xmlns="http://www.w3.org/2000/svg"
   xmlns:svg="http://www.w3.org/2000/svg">
  <sodipodi:namedview
     id="namedview20664"
     pagecolor="#ffffff"
     bordercolor="#666666"
     borderopacity="1.0"
     inkscape:pageshadow="2"
     inkscape:pageopacity="0.0"
     inkscape:pagecheckerboard="0"
     inkscape:document-units="mm"
     showgrid="false"
     units="px"
     lock-margins="true"
     fit-margin-top="1"
     fit-margin-left="1"
     fit-margin-right="1"
     fit-margin-bottom="1"
     inkscape:zoom="0.77771465"
     inkscape:cx="-198.65898"
     inkscape:cy="391.53178"
     inkscape:window-width="2488"
     inkscape:window-height="1376"
     inkscape:window-x="72"
     inkscape:window-y="27"
     inkscape:window-maximized="1"
     inkscape:current-layer="layer1" />
  <defs
     id="defs20659" />
  <g
     inkscape:label="Layer 1"
     inkscape:groupmode="layer"
     id="layer1"
     transform="translate(-40.496732,-44.809987)">
    <g
       style="display:inline;fill:#7c7c7c;stroke:#9c9d72;stroke-width:8.48279;stroke-linecap:round;stroke-linejoin:round;stroke-miterlimit:4;stroke-dasharray:none;stroke-opacity:1"
       id="g2383"
       transform="matrix(0.11788569,0,0,0.11788569,41.143343,45.456612)">
      <path
         id="path2375"
         style="fill:none;stroke:#9c9d72;stroke-width:3.77953;stroke-miterlimit:4;stroke-dasharray:none;stroke-opacity:1"
         d="m 331.5957,230.85547 -8.73437,6.99414 -12.0293,1.29297 -4.8125,8.1543 -2.36133,12.11914 -4.5,12.69726 -8.41992,8.82227 -21.07422,10.38086 -9.35742,8.55468 -2.04883,5.61329 -1.11523,14.34765 -1.38086,6.01563 -3.47461,5.0332 -8.24219,7.21875 -3.38672,5.48047 0.62305,10.20312 v 8.28711 l -1.38086,6.9961 -4.09961,4.36523 -11.49414,5.08008 -3.51953,4.72266 -0.625,12.16406 3.96484,4.90039 2.27344,4.85742 -6.19336,12.11719 -4.67773,4.41211 -8.37696,1.96093 -3.96484,2.7168 -4.45703,5.88086 -2.09375,4.58984 -3.65234,10.07032 -19.60547,34.17382 -2.27149,8.33204 6.6836,3.25195 12.51953,9.57812 5.25781,7.97657 -14.88281,-1.51563 0.0898,5.08008 -2.89648,7.8418 5.48047,5.07812 -6.77149,4.54492 -2.49609,8.42188 0.80273,10.4707 3.47461,11.04883 5.9707,9.98047 5.74805,2.80664 6.05859,1.02539 7.21875,4.45508 3.74219,5.57031 13.32227,26.46484 0.89062,4.14454 1.24805,12.25195 -0.26758,2.00586 3.6543,2.93945 14.43554,4.90235 3.6543,-1.20313 3.69727,0.26758 3.25195,5.21289 0.22266,1.95898 0.53515,4.72266 -4.85547,6.77344 -1.16015,10.51562 -2.53906,5.92578 2.00585,6.45899 3.875,2.9414 11.36133,1.29297 4.09961,3.47461 3.16406,12.43164 -3.16406,7.61719 -5.61328,5.25781 -4.54492,5.30274 -7.26172,20.18359 -4.5,8.73242 -6.37305,6.06055 9.625,5.30078 -5.39062,13.63477 -13.01172,13.94531 -13.45508,6.46094 17.77735,23.74804 9.89062,9.3125 14.25781,6.72657 35.91211,8.5996 10.64844,10.78126 7.79688,24.95117 9.84765,-3.29688 48.25391,-2.93945 8.33008,-3.07422 5.48046,-8.37695 6.86133,-2.62891 1.29297,-4.67773 -0.0449,-5.61524 2.98633,-5.30078 4.00976,-1.60547 15.99414,-1.51367 -3.69726,-8.01953 32.57031,-3.60938 16.08398,1.73633 15.50586,6.19336 0.97852,0.75781 27.00195,20.27344 15.0586,8.28711 11.31836,1.20313 v -6.46094 l -1.73829,-26.37696 4.8125,-36.58007 v -27.66797 l 3.20704,-9.625 8.55468,-13.45508 14.74805,-18.26758 5.74805,-11.85156 4.23242,-6.32617 1.55859,-3.92188 -0.5332,-5.79101 -7.08594,-5.88282 -0.97851,-2.89453 8.77734,-12.34179 41.61328,-27.08985 -4.99023,-6.37109 1.91601,-4.27734 2.62891,-1.29297 0.89062,-3.51953 -2.67187,-6.28321 -1.29297,-7.17187 0.40039,-7.8418 5.48047,-4.8125 0.26758,-3.43164 -1.51367,-3.875 0.043,-6.23828 2.67383,-19.07031 0.84766,-0.57813 0.043,-7.39648 -1.64844,-4.36719 -2.22656,-0.13281 -17.42188,-5.16797 h -27.17773 l -9.89258,-2.71875 -9.57812,-6.14844 -16.26368,-15.55078 -9.62304,-6.10352 -4.94532,-0.13281 -8.51171,5.16797 -4.54297,-0.40039 -0.625,-2.94141 -3.38672,-9.04492 -2.27149,-6.14844 -2.67382,-4.8125 -8.28711,-5.3457 -19.20313,-8.59961 -8.82226,-9 -18.62305,-45 -9.71289,-15.81836 -6.06055,12.11914 -4.54492,-7.66211 -8.59766,-24.77344 -9.75781,-14.9707 -2.45117,-7.1289 1.55859,-9.80274 -3.51953,-18.40039 -3.65234,-7.26367 -6.14844,-3.56445 5.25586,-10.29102 2.0957,-2.89648 -5.66015,-0.49024 3.56445,-24.81641 2.76367,-12.16406 3.91992,-12.78711 -8.41992,-3.78711 -1.29297,-6.99609 0.625,-8.33203 -2.45117,-8.15234 -7.30664,-7.08399 -4.41211,0.57813 -3.60937,3.92187 -4.94532,3.07422 -12.875,2.04883 -6.37304,-0.89063 -7.48438,-3.65429 -3.43164,-6.50391 -1.87109,-8.4668 z"
         transform="matrix(2.2444059,0,0,2.2444059,-383.03384,-517.13291)" />
      <circle
         cx="769"
         cy="637.09998"
         id="circle2377"
         r="0"
         style="stroke:#9c9d72;stroke-width:8.48279;stroke-miterlimit:4;stroke-dasharray:none;stroke-opacity:1" />
      <circle
         cx="342.20001"
         cy="1159"
         id="circle2379"
         r="0"
         style="stroke:#9c9d72;stroke-width:8.48279;stroke-miterlimit:4;stroke-dasharray:none;stroke-opacity:1" />
      <circle
         cx="412.10001"
         cy="503.79999"
         id="circle2381"
         r="0"
         style="stroke:#9c9d72;stroke-width:8.48279;stroke-miterlimit:4;stroke-dasharray:none;stroke-opacity:1" />
    </g>
    <path
       id="path2046"
       style="display:inline;fill:#9c9d72;fill-opacity:1;stroke:#ffffff;stroke-width:0;stroke-linecap:round;stroke-linejoin:round;stroke-miterlimit:4;stroke-dasharray:none"
       d="m 67.239043,115.82039 -5.22552,4.82865 0.44184,6.92154 4.94957,5.39347 -5.85081,4.35012 -7.08794,-6.13709 -4.67,6.63112 0.99012,1.47381 3.52485,7.00216 0.23564,1.09657 0.33022,3.24166 -0.0708,0.53072 0.96687,0.77773 3.8194,1.29708 0.96687,-0.31833 0.97823,0.0708 0.86042,1.37924 0.0589,0.51832 0.14159,1.24953 -1.28468,1.79214 -0.30695,2.78226 -0.6718,1.56786 0.53072,1.70894 1.02526,0.77825 3.00602,0.3421 1.08469,0.91932 0.83715,3.28921 -0.83715,2.01538 -1.48518,1.39113 -1.20251,1.40301 3.78116,1.56528 0.5457,3.97134 4.51342,4.44003 0.21653,5.52887 3.65869,-1.47898 3.61476,1.88929 2.67374,-3.38326 2.85047,-1.29398 6.72621,-1.30844 4.43022,-7.43211 -4.34806,-2.2102 1.44281,-3.20756 10.719237,-0.73638 -0.14004,2.7497 4.25504,0.31522 0.19792,3.2179 1.61488,0.11575 0.0507,3.07992 -4.80488,0.23616 -8.070817,9.24233 1.09089,2.1978 6.293147,-0.0832 1.81178,1.82572 0.10129,5.43533 4.91598,-0.58239 3.17034,-1.97662 -0.1235,-4.86586 0.88573,-3.01377 4.02766,-0.14263 0.95033,-3.20032 5.86734,-0.28887 -1.11827,-2.66909 -3.37757,-1.23506 4.91029,-5.85908 -3.5357,-4.9692 -1.91151,-6.23011 -0.9772,-1.7384 -11.76311,-0.0294 -0.10335,-10.55078 -5.29374,-4.0721 0.22531,-6.51847 -2.04793,-2.13268 -5.336627,-0.62529 -4.94647,-2.74298 -5.16816,-8.11682 -12.81524,-8.11372 -2.99206,2.84117 z" />
  </g>
</svg>
